<?xml version="1.0" encoding="UTF-8"?>
<!DOCTYPE svg PUBLIC "-//W3C//DTD SVG 1.0//EN" "http://www.w3.org/TR/2001/REC-SVG-20010904/DTD/svg10.dtd">
<!-- Creator: CorelDRAW 2019 (64-Bit) -->
<svg xmlns="http://www.w3.org/2000/svg" xml:space="preserve" width="1000px" height="1000px" version="1.0" style="shape-rendering:geometricPrecision; text-rendering:geometricPrecision; image-rendering:optimizeQuality; fill-rule:evenodd; clip-rule:evenodd"
viewBox="0 0 1000 1000"
 xmlns:xlink="http://www.w3.org/1999/xlink"
 xmlns:xodm="http://www.corel.com/coreldraw/odm/2003">
 <defs>
  <style type="text/css">
   <![CDATA[
    .fil1 {fill:#1E1A20}
    .fil0 {fill:#E21C29}
   ]]>
  </style>
 </defs>
 <g id="Слой_x0020_1">
  <metadata id="CorelCorpID_0Corel-Layer"/>
  <g id="_2711081278848">
   <path class="fil0" d="M60.04 445.02c0,-18.86 15.06,-70.31 20.7,-85.79 25.34,-69.66 71.66,-147.98 127.29,-193.31 42.79,-34.87 76.79,-58.81 133.75,-80.35 50.72,-19.2 113.08,-31.77 182.35,-31.77 13.74,0 30.37,0.01 43.69,1.44 11.75,1.26 11.65,4.73 24.46,20.68 36.67,45.72 77.19,128.31 82.3,189.69 -26.88,-6.26 -48.97,-17.66 -91.92,-26.14 -169.73,-33.49 -324.32,-1.85 -450.59,125.96 -12.28,12.43 -25.74,24.95 -36.95,38.29 -4.91,5.84 -32.23,39.39 -35.08,41.3zm-46.3 47.45l1.61 87.98c3.57,-2.11 33.6,-47.63 38.43,-54.89 87.12,-130.69 219.77,-257.64 397.43,-257.64 60.48,0 102.79,5.27 156.38,20.7 20.43,5.88 40.04,11.63 59.02,18.53 10.16,3.7 49.23,20.35 56.58,20.96 0,-67.58 -26.04,-159.4 -50.16,-203.32 -16.17,-29.44 -29.73,-51.9 -50.02,-77.29 -6.05,-7.57 -22.27,-30.41 -31.47,-32.19 -15.32,-2.98 -48.24,-3.16 -67.87,-3.18l-1.86 0c-123.3,0 -234.52,36.37 -323.93,107.77 -11.72,9.36 -21.94,20.71 -33.03,29.46 -32.26,25.44 -84.25,102.73 -102.19,144.34 -23.47,54.46 -48.92,121.68 -48.92,198.77z"/>
   <path class="fil1" d="M226.69 471.63c0,35.11 33.97,138.93 51.3,173.24 28.16,55.77 50.44,91.13 92.5,133.2 34.78,34.77 85.09,71.48 133.79,91.89 26.43,11.07 51.56,21.89 81.82,30.44 20.11,5.69 71.53,20.32 93.1,20.32 -4.8,6.56 -61.77,19.85 -75.9,22.47 -189.1,35.01 -338.72,-37.56 -439.38,-162.26 -17.94,-22.23 -37.68,-51.87 -51.43,-78.19 -25.99,-49.81 -29.41,-36.43 -3.46,-88.35 15.1,-30.25 31.31,-53.12 51.3,-78.32 8.51,-10.71 56.48,-61.8 66.36,-64.44zm-181.7 187.51c0,4.92 28.48,59.93 32.62,66.91 38.65,65.31 74.96,115.3 135.83,163.93 73.99,59.11 172.73,103.66 302.58,103.66 85.3,0 172.72,-23.75 239.92,-61 8.32,-4.62 60.89,-33.85 62.14,-38.54 -23.44,0 -94.01,-8.4 -119.85,-12.08 -97.13,-13.83 -212.03,-52.05 -280.3,-116.68 -50.02,-47.37 -80.08,-86.17 -109.38,-154.51 -20.55,-47.93 -33.95,-102.15 -42.69,-155.22 -2.34,-14.2 -7.92,-45.15 -7.92,-59.21 -8.83,2.36 -57.68,42.12 -67.78,50.28 -39.07,31.55 -84.22,85.88 -108.49,129.93 -6.06,11.02 -36.68,71.65 -36.68,82.53z"/>
   <path class="fil1" d="M779.89 148.71c17.75,9.39 59.52,56.14 73.43,73.56 71.43,89.43 113.04,208.57 94.75,337.69 -12.61,88.99 -44.96,147.9 -82.9,211.09 -11.59,19.31 -8.16,20.75 -50.55,22.36 -25.77,0.98 -45.98,0.69 -70.69,-1.09 -23.05,-1.65 -113.46,-17.4 -120.28,-26.7 6.19,-1.65 49.26,-43.79 56.45,-51.19 17.24,-17.77 35.34,-38.67 50.2,-58.6 32.41,-43.47 56.29,-84.98 75.49,-142.09 29.91,-88.92 25.89,-188.18 0.73,-282.86 -3.89,-14.66 -8.07,-28.25 -12.59,-41.81 -4.04,-12.09 -11.48,-29.38 -14.04,-40.36zm0 0l0 0zm-238.41 630.8c14.83,3.46 63.44,27.81 109.94,39.36 66.4,16.48 123.66,21.57 195.24,13.53 34.88,-3.93 26.72,-0.88 43.51,-23.62 16.55,-22.42 37.01,-57.44 49.13,-83.98 26.37,-57.72 54.7,-128.47 54.7,-211.5l0 -28.93c0,-143.84 -90.38,-294.86 -191.6,-372.06 -18.65,-14.22 -35.28,-25.89 -55.99,-37.76 -9.06,-5.2 -54.58,-31.89 -61.42,-33.48 14.98,28.32 29.93,62.14 43.14,92.27 13.79,31.46 25.69,64.83 35.7,99.72 45.16,157.38 20,291.16 -81.65,416.33 -39.77,48.97 -59.9,62.47 -102.81,99.73 -7.84,6.8 -33.62,24.57 -37.89,30.39z"/>
   <path class="fil1" d="M513.71 638.3l-18.52 0c-60.82,0 -122.68,-61.86 -122.68,-122.68l0 -18.52c0,-65.61 64.24,-123.85 131.94,-123.85 72.25,0 133.09,60.05 133.09,131.95 0,68.79 -57.5,133.1 -123.83,133.1zm-157.4 -134.26c0,84.59 65.96,150.47 149.3,150.47 78.28,0 146.98,-66.26 146.98,-143.52l0 -9.26c0,-75.85 -67.78,-143.52 -143.52,-143.52l-9.25 0c-76.53,0 -143.51,68.71 -143.51,145.83z"/>
   <path class="fil0" d="M413.02 448.48l18.54 0.78c2.23,-8.05 23.37,-22.36 31.97,-26.65 44.18,-22.05 100.55,-3.42 121.95,37.43 38.3,73.15 -21.27,138.91 -74.09,138.91l-13.89 0c-37.72,0 -80.53,-38.14 -83.32,-71.76l-17.42 -5.62c4.19,49.53 53.22,93.58 108.85,93.58 56.29,0 107.63,-48.93 107.63,-104.16l0 -9.26c0,-53.9 -50.27,-104.17 -104.17,-104.17 -25.17,0 -42.22,4.4 -60.84,15.53 -9.09,5.43 -32.66,25.86 -35.21,35.39z"/>
  </g>
 </g>
</svg>
